# xmcd
#
# Track frame offsets:
#	150
#	26946
#	42629
#	73537
#	91891
#	116138
#	136958
#	163944
#	186660
#	207692
#	232090
#	253349
#	275102
#	307781
#
# Disc length: 4386 seconds
#
# Revision: 0
# Processed by: cddbd v1.4PL0 Copyright (c) Steve Scherf et al.
# Submitted via: EasyCDDAExtractor 5.0.4.1
#
DISCID=e511200e
DTITLE=Various Artist - Ottakringer
DYEAR=1900
DGENRE=
TTITLE0=Gotan Project - El Capitalismo Foraneo
TTITLE1=Fulanito - Serenata Negra
TTITLE2=Dj Krush and Toshinori Kondo - Sun Is Shining
TTITLE3=Waldeck - Tears running dry
TTITLE4=Dub Syndicate - Stoned Immaculate
TTITLE5=Jimi Tenor - City Sleeps
TTITLE6=llorca - I Cry (Original Mix)
TTITLE7=Dj Shadow - Midnight In A Perfect World
TTITLE8=Dj Krush and Toshinori Kondo - Ki - Gen
TTITLE9=Kid Loco - Cornu ''Youpi'' (Space Spaghetti Mix)
TTITLE10=Terranova - Midnight Melodic
TTITLE11=Waldeck - Defenceless (Thievery Corporation)
TTITLE12=Geb.El - Love From The Sun
TTITLE13=Baby Namboos - ancoats2zambia
EXTD=
EXTT0=
EXTT1=
EXTT2=
EXTT3=
EXTT4=
EXTT5=
EXTT6=
EXTT7=
EXTT8=
EXTT9=
EXTT10=
EXTT11=
EXTT12=
EXTT13=
PLAYORDER=
